<svg width="101" height="30" viewBox="0 0 101 30" fill="none" xmlns="http://www.w3.org/2000/svg">
<path d="M21.6665 0.546875L17.3979 7.21493L13.1294 13.883L10.995 17.2171L8.62817 20.5511C8.62817 20.5511 10.0323 23.331 13.2513 23.331C16.0449 23.331 17.6411 20.5511 17.6411 20.5511L26.179 7.21493L30.4476 0.546875H21.6665Z" fill="url(#paint0_linear_2712_2986)"/>
<path d="M13.1379 13.8829L8.86935 7.21484H0.0882454L8.62615 20.551C8.62615 20.551 10.2223 23.3309 13.016 23.3309C16.235 23.3309 17.6385 20.551 17.6385 20.551L15.2722 17.217L13.1379 13.8829Z" fill="#30DA74"/>
<path d="M34.0139 6.79365C35.7414 6.79365 37.1869 5.49206 37.1869 3.93651C37.1869 2.38095 35.7414 1.07936 34.0139 1.07936C32.2158 1.07936 30.8408 2.38095 30.8408 3.93651C30.8408 5.49206 32.2158 6.79365 34.0139 6.79365ZM31.2286 23.3016H36.7991V8.7619H31.2286V23.3016Z" fill="#3074DC"/>
<path d="M45.7187 8.7619H40.1483V23.3016H45.7187V15.6508C45.7187 14.4762 47.4463 13.5238 49.5264 13.5238L50.9013 8.50794C49.2091 8.50794 47.3405 8.8254 45.7187 9.5873V8.7619Z" fill="#3074DC"/>
<path d="M54.6337 21.6508C56.1144 22.8889 57.983 23.5556 59.9926 23.5556C61.9669 23.5556 63.8707 22.8889 65.3162 21.6508C66.7617 20.3492 67.5726 18.6667 67.5726 16.8889V8.7619H62.0022V16.8889C62.0022 17.8095 61.0855 18.6032 59.9926 18.6032C58.8997 18.6032 57.983 17.8095 57.983 16.8889V8.7619H52.4126V16.8889C52.4126 18.6667 53.1882 20.3492 54.6337 21.6508Z" fill="#3074DC"/>
<path d="M77.9598 0C74.7162 0 72.072 2.31746 72.072 5.26984V8.7619H70.1682V13.6825H72.072V23.3016H77.6425V13.6825H81.6616V8.7619H77.6425V5.30159C77.6425 5.11111 77.8188 4.92063 78.0303 4.92063H81.4149L82.8604 0H77.9598Z" fill="#3074DC"/>
<path d="M90.4987 30L100.088 8.7619H94.4826L91.4153 15.619L88.2775 8.7619H82.6719L88.6301 21.9365L84.9987 30H90.4987Z" fill="#3074DC"/>
<defs>
<linearGradient id="paint0_linear_2712_2986" x1="27.5886" y1="-0.722967" x2="11.5309" y2="28.3987" gradientUnits="userSpaceOnUse">
<stop stop-color="#3578DE"/>
<stop stop-color="#3578DE"/>
<stop offset="0.260989" stop-color="#3578DE"/>
<stop offset="0.868813" stop-color="#3578DE" stop-opacity="0.52"/>
<stop offset="0.971831" stop-color="#3578DE" stop-opacity="0"/>
</linearGradient>
</defs>
</svg>
